<svg xmlns="http://www.w3.org/2000/svg" x="0px" y="0px" width="15" height="15" viewBox="0,0,256,256">
<defs><linearGradient x1="8.954" y1="20.386" x2="11.771" y2="41.233" gradientUnits="userSpaceOnUse" id="color-1_uJP6M6Qi3A6T_gr1"><stop offset="0" stop-color="#ffffff"></stop><stop offset="1" stop-color="#ffffff"></stop></linearGradient><linearGradient x1="23.74" y1="-10.617" x2="32.123" y2="51.404" gradientUnits="userSpaceOnUse" id="color-2_uJP6M6Qi3A6T_gr2"><stop offset="0" stop-color="#ffffff"></stop><stop offset="1" stop-color="#ffffff"></stop></linearGradient><linearGradient x1="14.144" y1="4.638" x2="28.714" y2="61.753" gradientUnits="userSpaceOnUse" id="color-3_uJP6M6Qi3A6T_gr3"><stop offset="0" stop-color="#585856"></stop><stop offset="1" stop-color="#000000"></stop></linearGradient><linearGradient x1="12.496" y1="16.013" x2="12.496" y2="18.965" gradientUnits="userSpaceOnUse" id="color-4_uJP6M6Qi3A6T_gr4"><stop offset="0" stop-color="#000000"></stop><stop offset="1" stop-color="#ffc528"></stop></linearGradient><linearGradient x1="26.814" y1="21.585" x2="29.469" y2="41.228" gradientUnits="userSpaceOnUse" id="color-5_uJP6M6Qi3A6T_gr5"><stop offset="0" stop-color="#ffffff"></stop><stop offset="1" stop-color="#ffffff"></stop></linearGradient></defs><g fill="none" fill-rule="nonzero" stroke="none" stroke-width="1" stroke-linecap="butt" stroke-linejoin="miter" stroke-miterlimit="10" stroke-dasharray="" stroke-dashoffset="0" font-family="none" font-weight="none" font-size="none" text-anchor="none" style="mix-blend-mode: normal"><g transform="scale(5.33333,5.33333)"><path d="M13.499,30.607c-1.243,4.843 -1.83,5.853 -3.174,7.335c-1.067,1.176 -1.832,0.579 -2.153,-0.368c-0.609,-1.798 -0.278,-8.655 3.989,-12.699z" fill="url(#color-1_uJP6M6Qi3A6T_gr1)"></path><path d="M36,42h-9l-10.753,-34.919c1.745,-1.778 4.966,-3.081 8.753,-3.081c10,0 13,11.297 13,20.541v15.459c0,1.105 -0.895,2 -2,2z" fill="url(#color-2_uJP6M6Qi3A6T_gr2)"></path><path d="M16.247,7.081c-4.324,3.979 -5.247,11.298 -5.247,17.534v14.385c0,1.657 1.343,3 3,3h13c0,-7.159 2,-16.317 2,-23.476c0,-10.524 -6,-12.466 -12.753,-11.443z" fill="url(#color-3_uJP6M6Qi3A6T_gr3)"></path><circle cx="13" cy="15" r="3" fill="#313131"></circle><ellipse cx="1.54526" cy="18.23852" transform="rotate(-35.653)" rx="1.345" ry="0.906" fill="#ffffff"></ellipse><path d="M7.388,17.519c1.753,-0.402 9.612,-1.519 9.612,-1.519c0.518,0.333 0.992,0.73 0.992,1.565c0,0.777 -0.451,1.124 -0.992,1.435c0,0 -7.826,-0.337 -9.574,-0.646c-0.553,-0.098 -0.568,-0.713 -0.038,-0.835z" fill="url(#color-4_uJP6M6Qi3A6T_gr4)"></path><circle cx="23" cy="15" r="3" fill="#313131"></circle><ellipse cx="9.67088" cy="24.06627" transform="rotate(-35.653)" rx="1.345" ry="0.906" fill="#ffffff"></ellipse><path d="M17,19c0.413,-0.238 0.769,-0.499 0.917,-0.953l-6.708,0.646c2.733,0.249 5.791,0.307 5.791,0.307z" fill="#e3a600"></path><path d="M31.801,26.068c-0.401,-0.534 -1.199,-0.538 -1.598,-0.003c-2.973,3.981 -6.953,9.45 -7.241,11.257c-0.25,1.569 0.538,1.678 1.538,1.678c0.986,0 8.295,0 9.455,-9.593c0.031,-0.257 -0.042,-0.523 -0.197,-0.73z" fill="url(#color-5_uJP6M6Qi3A6T_gr5)"></path></g></g>
</svg>